<svg width="22.000000" height="22.000000" viewBox="0 0 22 22" fill="none" xmlns="http://www.w3.org/2000/svg" xmlns:xlink="http://www.w3.org/1999/xlink">
	<desc>
			Created with Pixso.
	</desc>
	<defs/>
	<path id="Vector" d="M2.87 2.75C2.79 2.75 2.66 2.75 2.43 2.75L0.91 2.75C0.41 2.75 0 2.33 0 1.83C0 1.32 0.41 0.91 0.91 0.91L2.43 0.91L2.45 0.91C2.65 0.91 2.84 0.91 3.01 0.92C3.2 0.94 3.41 0.97 3.64 1.07C3.95 1.21 4.22 1.44 4.41 1.72C4.55 1.93 4.62 2.13 4.66 2.31C4.7 2.48 4.74 2.67 4.77 2.86C4.77 2.87 4.77 2.88 4.78 2.89L5 4.14L16.92 4.5C17.39 4.51 17.8 4.52 18.13 4.56C18.48 4.6 18.83 4.67 19.16 4.85C19.67 5.12 20.08 5.54 20.33 6.05C20.5 6.39 20.57 6.75 20.59 7.1C20.62 7.43 20.62 7.83 20.62 8.3L20.62 8.37C20.62 8.81 20.62 9.19 20.59 9.51C20.57 9.84 20.51 10.18 20.36 10.5C20.12 11 19.75 11.41 19.28 11.69C18.97 11.88 18.64 11.97 18.31 12.03C18 12.08 17.62 12.12 17.18 12.16L8.26 13.02C7.81 13.07 7.42 13.11 7.09 13.11C6.75 13.12 6.41 13.09 6.06 12.96C5.54 12.77 5.09 12.43 4.77 11.98C4.56 11.68 4.44 11.36 4.36 11.02C4.28 10.71 4.21 10.33 4.13 9.88L2.97 3.2C2.93 2.97 2.91 2.85 2.89 2.76C2.89 2.76 2.88 2.76 2.88 2.75C2.88 2.75 2.88 2.75 2.87 2.75ZM5.32 5.99L5.93 9.53C6.02 10.02 6.07 10.33 6.13 10.57C6.19 10.79 6.24 10.87 6.26 10.91C6.37 11.06 6.52 11.18 6.69 11.24C6.74 11.26 6.83 11.28 7.06 11.28C7.31 11.27 7.62 11.24 8.11 11.2L16.97 10.34C17.45 10.29 17.76 10.26 17.99 10.22C18.21 10.18 18.3 10.14 18.34 10.12C18.5 10.03 18.62 9.89 18.7 9.72C18.72 9.68 18.75 9.59 18.77 9.37C18.79 9.13 18.79 8.82 18.79 8.34C18.79 7.83 18.79 7.5 18.77 7.24C18.75 7 18.71 6.91 18.69 6.87C18.61 6.7 18.47 6.56 18.3 6.47C18.26 6.44 18.17 6.41 17.93 6.38C17.68 6.35 17.35 6.34 16.83 6.33L5.32 5.99ZM5.04 16.95C5.04 15.43 6.27 14.2 7.79 14.2C9.31 14.2 10.54 15.43 10.54 16.95C10.54 18.47 9.31 19.7 7.79 19.7C6.27 19.7 5.04 18.47 5.04 16.95ZM16.5 14.2C14.98 14.2 13.75 15.43 13.75 16.95C13.75 18.47 14.98 19.7 16.5 19.7C18.01 19.7 19.25 18.47 19.25 16.95C19.25 15.43 18.01 14.2 16.5 14.2ZM7.79 16.04C7.28 16.04 6.87 16.45 6.87 16.95C6.87 17.46 7.28 17.87 7.79 17.87C8.29 17.87 8.7 17.46 8.7 16.95C8.7 16.45 8.29 16.04 7.79 16.04ZM15.58 16.95C15.58 16.45 15.99 16.04 16.5 16.04C17 16.04 17.41 16.45 17.41 16.95C17.41 17.46 17 17.87 16.5 17.87C15.99 17.87 15.58 17.46 15.58 16.95Z" fill="#424551" fill-opacity="1.000000" fill-rule="evenodd"/>
</svg>
