<svg width="16.000000" height="16.000000" viewBox="0 0 16 16" fill="none" xmlns="http://www.w3.org/2000/svg" xmlns:xlink="http://www.w3.org/1999/xlink">
	<desc>
			Created with Pixso.
	</desc>
	<defs>
		<clipPath id="clip31_4054">
			<rect id="Profile" width="16.000000" height="16.000000" fill="white" fill-opacity="0"/>
		</clipPath>
	</defs>
	<g clip-path="url(#clip31_4054)">
		<path id="Vector" d="M8 0.83C5.97 0.83 4.33 2.47 4.33 4.5C4.33 6.52 5.97 8.16 8 8.16C10.02 8.16 11.66 6.52 11.66 4.5C11.66 2.47 10.02 0.83 8 0.83ZM5.66 4.5C5.66 3.21 6.71 2.16 8 2.16C9.28 2.16 10.33 3.21 10.33 4.5C10.33 5.78 9.28 6.83 8 6.83C6.71 6.83 5.66 5.78 5.66 4.5ZM4.07 8.83C3.19 8.83 2.29 9.27 1.88 10.16C1.65 10.67 1.4 11.36 1.34 12.08C1.28 12.74 1.55 13.42 2.16 13.8C3.07 14.36 4.9 15.16 8 15.16C11.09 15.16 12.92 14.36 13.83 13.8C14.44 13.42 14.71 12.74 14.66 12.08C14.59 11.36 14.34 10.67 14.11 10.16C13.71 9.27 12.8 8.83 11.93 8.83L4.07 8.83ZM3.09 10.71C3.24 10.39 3.6 10.16 4.07 10.16L11.93 10.16C12.39 10.16 12.75 10.39 12.9 10.71C13.1 11.16 13.28 11.69 13.33 12.2C13.35 12.42 13.25 12.59 13.12 12.67C12.44 13.09 10.85 13.83 8 13.83C5.15 13.83 3.56 13.09 2.87 12.67C2.74 12.59 2.65 12.42 2.66 12.2C2.71 11.69 2.89 11.16 3.09 10.71Z" fill="#FFFFFF" fill-opacity="1.000000" fill-rule="evenodd"/>
	</g>
</svg>
