<svg width="20.000000" height="20.000000" viewBox="0 0 20 20" fill="none" xmlns="http://www.w3.org/2000/svg" xmlns:xlink="http://www.w3.org/1999/xlink">
	<desc>
			Created with Pixso.
	</desc>
	<defs/>
	<path id="Vector (Stroke)" d="M10 16.58C6.16 14.4 4.02 12.23 2.99 10.35C1.93 8.42 2.02 6.8 2.61 5.65C3.82 3.28 7.25 2.52 9.34 5.17L9.99 6L10.65 5.17C12.74 2.52 16.17 3.28 17.38 5.65C17.96 6.8 18.06 8.42 17 10.35C15.96 12.23 13.83 14.4 10 16.58ZM10 3.42C7.05 0.62 2.71 1.78 1.13 4.89C0.25 6.6 0.24 8.81 1.53 11.15C2.8 13.47 5.34 15.92 9.59 18.27L10 18.49L10.4 18.27C14.64 15.92 17.18 13.47 18.46 11.15C19.75 8.81 19.73 6.6 18.86 4.89C17.27 1.78 12.93 0.62 10 3.42Z" fill="#424551" fill-opacity="1.000000" fill-rule="evenodd"/>
</svg>
