<svg width="162.000000" height="48.000000" viewBox="0 0 162 48" fill="none" xmlns="http://www.w3.org/2000/svg" xmlns:xlink="http://www.w3.org/1999/xlink">
	<desc>
	</desc>
	<defs>
		<clipPath id="clip23_4592">
			<rect id="app-store" width="40.478142" height="11.996700" fill="white" fill-opacity="0"/>
		</clipPath>
		<linearGradient x1="118.822693" y1="48.113205" x2="118.822693" y2="-644.441650" id="paint_linear_23_4590_0" gradientUnits="userSpaceOnUse">
			<stop stop-color="#1A1A1A" stop-opacity="0.101961"/>
			<stop offset="0.123000" stop-color="#212121" stop-opacity="0.152941"/>
			<stop offset="0.308000" stop-color="#353535" stop-opacity="0.227451"/>
			<stop offset="0.532000" stop-color="#575757" stop-opacity="0.317647"/>
			<stop offset="0.783000" stop-color="#858585" stop-opacity="0.419608"/>
			<stop offset="1.000000" stop-color="#B3B3B3" stop-opacity="0.509804"/>
		</linearGradient>
	</defs>
	<g clip-path="url(#clip23_4592)">
		<path id="Vector" d="M156.32 48L5.67 48C2.54 48 0 45.46 0 42.32L0 5.67C0 2.53 2.54 0 5.67 0L156.32 0C159.45 0 162 2.53 162 5.67L162 42.32C162 45.46 159.45 48 156.32 48Z" fill="#424551" fill-opacity="1.000000" fill-rule="nonzero"/>
		<path id="Vector" d="M160.93 42.32C160.93 44.86 158.88 46.91 156.34 46.91L5.7 46.91C3.16 46.91 1.08 44.86 1.08 42.32L1.08 5.67C1.08 3.13 3.16 1.06 5.7 1.06L156.34 1.06C158.88 1.06 160.96 3.1 160.96 5.67L160.93 42.32Z" fill="#424551" fill-opacity="1.000000" fill-rule="nonzero"/>
		<path id="Vector" d="M36.16 23.74C36.14 19.87 39.32 17.98 39.48 17.91C37.66 15.26 34.86 14.9 33.85 14.87C31.5 14.61 29.21 16.3 28 16.3C26.78 16.3 24.91 14.9 22.91 14.95C20.35 15 17.94 16.48 16.61 18.79C13.89 23.5 15.91 30.42 18.53 34.21C19.83 36.07 21.36 38.15 23.35 38.07C25.3 37.99 26.02 36.83 28.38 36.83C30.72 36.83 31.39 38.07 33.44 38.02C35.54 37.99 36.86 36.15 38.1 34.26C39.61 32.13 40.21 30.01 40.23 29.91C40.23 29.91 36.21 28.38 36.16 23.74ZM32.32 12.36C33.36 11.04 34.09 9.27 33.88 7.46C32.35 7.54 30.46 8.52 29.37 9.79C28.41 10.93 27.53 12.77 27.76 14.51C29.47 14.64 31.24 13.66 32.32 12.36Z" fill="#FFFFFF" fill-opacity="1.000000" fill-rule="nonzero"/>
		<path id="Vector" d="M156.32 0L75.63 0L107.24 48L156.32 48C159.45 48 162 45.46 162 42.32L162 5.67C162 2.53 159.45 0 156.32 0Z" fill="url(#paint_linear_23_4590_0)" fill-opacity="1.000000" fill-rule="nonzero"/>
		<path id="Vector" d="M64.43 37.81L61.7 37.81L60.2 33.12L55.01 33.12L53.59 37.81L50.94 37.81L56.08 21.84L59.27 21.84L64.43 37.81ZM59.76 31.15L58.41 26.98C58.26 26.56 58 25.55 57.61 23.97L57.56 23.97C57.4 24.64 57.14 25.65 56.8 26.98L55.48 31.15L59.76 31.15ZM77.62 31.9C77.62 33.87 77.08 35.4 76.02 36.54C75.06 37.55 73.89 38.07 72.46 38.07C70.93 38.07 69.85 37.52 69.17 36.44L69.17 42.48L66.63 42.48L66.63 30.06C66.63 28.84 66.6 27.57 66.53 26.28L68.78 26.28L68.94 28.09L68.99 28.09C69.85 26.72 71.14 26.02 72.88 26.02C74.23 26.02 75.37 26.56 76.28 27.62C77.18 28.74 77.62 30.16 77.62 31.9ZM75.03 32C75.03 30.89 74.77 29.96 74.28 29.23C73.74 28.48 72.98 28.09 72.05 28.09C71.43 28.09 70.86 28.3 70.34 28.71C69.82 29.13 69.48 29.67 69.33 30.37C69.25 30.63 69.22 30.89 69.2 31.15L69.2 33.07C69.2 33.9 69.46 34.62 69.98 35.19C70.5 35.76 71.17 36.05 71.97 36.05C72.93 36.05 73.68 35.68 74.23 34.93C74.77 34.21 75.03 33.22 75.03 32ZM90.9 31.9C90.9 33.87 90.35 35.4 89.29 36.54C88.33 37.55 87.17 38.07 85.74 38.07C84.21 38.07 83.12 37.52 82.45 36.44L82.45 42.48L79.88 42.48L79.88 30.06C79.88 28.84 79.85 27.57 79.78 26.28L82.03 26.28L82.19 28.09L82.24 28.09C83.09 26.72 84.39 26.02 86.13 26.02C87.48 26.02 88.62 26.56 89.53 27.62C90.43 28.74 90.9 30.16 90.9 31.9ZM88.28 32C88.28 30.89 88.02 29.96 87.53 29.23C86.99 28.48 86.23 28.09 85.3 28.09C84.68 28.09 84.11 28.3 83.59 28.71C83.07 29.13 82.73 29.67 82.58 30.37C82.5 30.68 82.45 30.94 82.45 31.15L82.45 33.07C82.45 33.9 82.71 34.62 83.23 35.19C83.74 35.76 84.42 36.05 85.22 36.05C86.18 36.05 86.93 35.68 87.48 34.93C88.02 34.21 88.28 33.22 88.28 32ZM105.7 33.33C105.7 34.67 105.24 35.79 104.28 36.64C103.24 37.58 101.79 38.04 99.92 38.04C98.21 38.04 96.84 37.71 95.77 37.06L96.37 34.93C97.49 35.61 98.73 35.92 100.08 35.92C101.04 35.92 101.79 35.71 102.34 35.27C102.88 34.83 103.14 34.26 103.14 33.53C103.14 32.89 102.91 32.34 102.46 31.9C102.02 31.46 101.3 31.05 100.26 30.66C97.46 29.62 96.06 28.09 96.06 26.07C96.06 24.75 96.55 23.68 97.54 22.85C98.52 22.03 99.84 21.61 101.45 21.61C102.91 21.61 104.12 21.87 105.08 22.36L104.43 24.44C103.53 23.94 102.52 23.71 101.37 23.71C100.47 23.71 99.77 23.94 99.25 24.38C98.83 24.77 98.6 25.26 98.6 25.83C98.6 26.46 98.83 27 99.33 27.39C99.74 27.78 100.52 28.17 101.66 28.64C103.03 29.18 104.05 29.83 104.69 30.58C105.39 31.3 105.7 32.21 105.7 33.33ZM114.18 28.22L111.36 28.22L111.36 33.82C111.36 35.24 111.85 35.94 112.86 35.94C113.33 35.94 113.69 35.92 114 35.81L114.08 37.76C113.59 37.94 112.91 38.04 112.08 38.04C111.07 38.04 110.29 37.73 109.72 37.11C109.15 36.49 108.87 35.45 108.87 34L108.87 28.19L107.18 28.19L107.18 26.28L108.87 26.28L108.87 24.18L111.38 23.42L111.38 26.3L114.21 26.3L114.18 28.22ZM126.89 31.95C126.89 33.71 126.37 35.17 125.36 36.31C124.3 37.47 122.9 38.07 121.13 38.07C119.45 38.07 118.1 37.5 117.09 36.38C116.08 35.27 115.58 33.84 115.58 32.13C115.58 30.34 116.1 28.89 117.14 27.75C118.18 26.61 119.58 26.04 121.31 26.04C123 26.04 124.37 26.61 125.38 27.73C126.4 28.82 126.89 30.24 126.89 31.95ZM124.24 32C124.24 30.94 124.01 30.03 123.57 29.28C123.02 28.38 122.27 27.91 121.26 27.91C120.23 27.91 119.45 28.38 118.9 29.28C118.44 30.03 118.23 30.97 118.23 32.06C118.23 33.12 118.46 34.03 118.9 34.78C119.45 35.68 120.23 36.15 121.24 36.15C122.22 36.15 122.97 35.68 123.54 34.75C124.01 33.97 124.24 33.07 124.24 32ZM135.21 28.53C134.95 28.48 134.67 28.45 134.41 28.45C133.5 28.45 132.8 28.79 132.33 29.46C131.92 30.06 131.68 30.81 131.68 31.75L131.68 37.78L129.12 37.78L129.12 29.91C129.12 28.69 129.09 27.5 129.04 26.28L131.27 26.28L131.37 28.48L131.45 28.48C131.71 27.73 132.15 27.11 132.72 26.66C133.27 26.28 133.92 26.04 134.56 26.04C134.8 26.04 135 26.07 135.21 26.09L135.21 28.53ZM146.67 31.51C146.67 31.9 146.64 32.29 146.57 32.68L138.89 32.68C138.92 33.82 139.28 34.7 140.01 35.3C140.66 35.84 141.49 36.1 142.52 36.1C143.66 36.1 144.7 35.92 145.63 35.56L146.02 37.32C144.93 37.78 143.64 38.02 142.16 38.02C140.37 38.02 138.97 37.5 137.96 36.44C136.95 35.37 136.43 33.97 136.43 32.21C136.43 30.48 136.9 29.02 137.86 27.88C138.84 26.64 140.19 26.04 141.87 26.04C143.53 26.04 144.81 26.66 145.63 27.88C146.34 28.87 146.67 30.06 146.67 31.51ZM144.23 30.84C144.26 30.09 144.08 29.41 143.74 28.87C143.3 28.14 142.63 27.81 141.69 27.81C140.86 27.81 140.16 28.14 139.64 28.84C139.23 29.39 138.97 30.06 138.89 30.84L144.23 30.84ZM54.29 16.19C53.59 16.19 52.97 16.17 52.45 16.09L52.45 8.37C53.17 8.26 53.9 8.21 54.63 8.21C57.56 8.21 58.91 9.66 58.91 12.02C58.91 14.72 57.3 16.19 54.29 16.19ZM54.7 9.2C54.32 9.2 53.98 9.22 53.69 9.27L53.69 15.13C53.85 15.16 54.13 15.16 54.55 15.16C56.47 15.16 57.56 14.07 57.56 12.02C57.56 10.21 56.57 9.2 54.7 9.2ZM63.1 16.25C61.44 16.25 60.38 15 60.38 13.34C60.38 11.61 61.47 10.36 63.21 10.36C64.84 10.36 65.93 11.53 65.93 13.26C65.93 15 64.79 16.25 63.1 16.25ZM63.16 11.27C62.25 11.27 61.65 12.13 61.65 13.32C61.65 14.48 62.25 15.34 63.13 15.34C64.01 15.34 64.61 14.43 64.61 13.29C64.63 12.13 64.04 11.27 63.16 11.27ZM75.37 10.47L73.61 16.12L72.44 16.12L71.71 13.65C71.53 13.06 71.38 12.44 71.25 11.81L71.22 11.81C71.12 12.44 70.96 13.06 70.75 13.65L69.98 16.12L68.81 16.12L67.15 10.47L68.45 10.47L69.09 13.16C69.25 13.81 69.38 14.41 69.48 14.98L69.51 14.98C69.61 14.51 69.74 13.91 69.98 13.16L70.78 10.47L71.82 10.47L72.59 13.11C72.78 13.76 72.93 14.38 73.06 14.98L73.09 14.98C73.16 14.41 73.29 13.78 73.48 13.11L74.18 10.47L75.37 10.47ZM81.88 16.12L80.63 16.12L80.63 12.88C80.63 11.87 80.24 11.37 79.49 11.37C78.74 11.37 78.22 12.02 78.22 12.75L78.22 16.12L76.95 16.12L76.95 12.07C76.95 11.58 76.95 11.04 76.9 10.47L78.01 10.47L78.07 11.35L78.09 11.35C78.43 10.75 79.13 10.36 79.88 10.36C81.07 10.36 81.85 11.27 81.85 12.75L81.88 16.12ZM85.35 16.12L84.08 16.12L84.08 7.85L85.35 7.85L85.35 16.12ZM89.94 16.25C88.28 16.25 87.22 15 87.22 13.34C87.22 11.61 88.31 10.36 90.04 10.36C91.68 10.36 92.77 11.53 92.77 13.26C92.77 15 91.63 16.25 89.94 16.25ZM89.99 11.27C89.08 11.27 88.49 12.13 88.49 13.32C88.49 14.48 89.08 15.34 89.97 15.34C90.85 15.34 91.44 14.43 91.44 13.29C91.44 12.13 90.87 11.27 89.99 11.27ZM97.72 16.12L97.62 15.47L97.59 15.47C97.2 15.99 96.66 16.25 95.93 16.25C94.92 16.25 94.19 15.55 94.19 14.59C94.19 13.19 95.41 12.46 97.51 12.46L97.51 12.36C97.51 11.61 97.12 11.24 96.34 11.24C95.77 11.24 95.31 11.37 94.87 11.66L94.61 10.83C95.13 10.49 95.77 10.34 96.55 10.34C98.03 10.34 98.78 11.11 98.78 12.67L98.78 14.74C98.78 15.31 98.81 15.75 98.86 16.09L97.72 16.12ZM97.54 13.29C96.14 13.29 95.44 13.63 95.44 14.43C95.44 15.03 95.8 15.31 96.29 15.31C96.94 15.31 97.54 14.82 97.54 14.17L97.54 13.29ZM104.88 16.12L104.82 15.21L104.8 15.21C104.43 15.88 103.84 16.25 102.98 16.25C101.61 16.25 100.6 15.05 100.6 13.37C100.6 11.61 101.63 10.36 103.09 10.36C103.84 10.36 104.38 10.62 104.69 11.14L104.72 11.14L104.72 7.85L105.99 7.85L105.99 14.59C105.99 15.13 106.02 15.65 106.04 16.12L104.88 16.12ZM104.69 12.8C104.69 12 104.18 11.32 103.37 11.32C102.44 11.32 101.87 12.15 101.87 13.32C101.87 14.46 102.46 15.24 103.35 15.24C104.15 15.24 104.69 14.54 104.69 13.73L104.69 12.8ZM113.95 16.25C112.29 16.25 111.23 15 111.23 13.34C111.23 11.61 112.32 10.36 114.05 10.36C115.69 10.36 116.78 11.53 116.78 13.26C116.78 15 115.64 16.25 113.95 16.25ZM114 11.27C113.1 11.27 112.52 12.13 112.52 13.32C112.52 14.48 113.12 15.34 114 15.34C114.88 15.34 115.48 14.43 115.48 13.29C115.45 12.13 114.88 11.27 114 11.27ZM123.54 16.12L122.27 16.12L122.27 12.88C122.27 11.87 121.88 11.37 121.13 11.37C120.38 11.37 119.89 12.02 119.89 12.75L119.89 16.12L118.62 16.12L118.62 12.07C118.62 11.58 118.62 11.04 118.57 10.47L119.68 10.47L119.73 11.35L119.76 11.35C120.1 10.75 120.8 10.36 121.55 10.36C122.74 10.36 123.52 11.27 123.52 12.75L123.52 16.12L123.54 16.12ZM132 11.4L130.62 11.4L130.62 14.15C130.62 14.85 130.85 15.18 131.35 15.18C131.58 15.18 131.76 15.16 131.92 15.13L131.94 16.09C131.71 16.19 131.37 16.22 130.96 16.22C129.97 16.22 129.38 15.68 129.38 14.25L129.38 11.4L128.55 11.4L128.55 10.47L129.38 10.47L129.38 9.43L130.62 9.07L130.62 10.47L132 10.47L132 11.4ZM138.66 16.12L137.42 16.12L137.42 12.9C137.42 11.89 137.03 11.37 136.27 11.37C135.63 11.37 135 11.81 135 12.72L135 16.14L133.76 16.14L133.76 7.85L135 7.85L135 11.24L135.03 11.24C135.42 10.62 135.99 10.31 136.74 10.31C137.93 10.31 138.66 11.24 138.66 12.72L138.66 16.12ZM145.48 13.6L141.69 13.6C141.72 14.66 142.42 15.29 143.48 15.29C144.05 15.29 144.55 15.18 145.01 15.03L145.22 15.91C144.67 16.14 144.05 16.25 143.33 16.25C141.56 16.25 140.5 15.13 140.5 13.4C140.5 11.66 141.56 10.36 143.17 10.36C144.62 10.36 145.53 11.42 145.53 13.06C145.53 13.21 145.53 13.4 145.48 13.6ZM144.34 12.69C144.34 11.81 143.9 11.19 143.09 11.19C142.37 11.19 141.8 11.81 141.72 12.69L144.34 12.69Z" fill="#FFFFFF" fill-opacity="1.000000" fill-rule="nonzero"/>
	</g>
</svg>
