<svg width="16.000000" height="16.000000" viewBox="0 0 16 16" fill="none" xmlns="http://www.w3.org/2000/svg" xmlns:xlink="http://www.w3.org/1999/xlink">
	<desc>
	</desc>
	<defs/>
	<path id="Vector" d="M11.7 0.67L9.85 0.66C7.77 0.66 6.43 2.08 6.43 4.27L6.43 5.94L4.57 5.94C4.41 5.94 4.27 6.07 4.27 6.24L4.27 8.65C4.27 8.81 4.41 8.95 4.57 8.95L6.43 8.95L6.43 15.03C6.43 15.2 6.56 15.33 6.72 15.33L9.15 15.33C9.31 15.33 9.44 15.2 9.44 15.03L9.44 8.95L11.61 8.95C11.78 8.95 11.91 8.81 11.91 8.65L11.91 6.24C11.91 6.16 11.88 6.08 11.82 6.02C11.77 5.97 11.69 5.94 11.62 5.94L9.44 5.94L9.44 4.53C9.44 3.85 9.59 3.5 10.46 3.5L11.7 3.5C11.86 3.5 11.99 3.37 11.99 3.2L11.99 0.97C11.99 0.8 11.86 0.67 11.7 0.67Z" fill="#FFFFFF" fill-opacity="1.000000" fill-rule="nonzero"/>
</svg>
