<svg width="32.000000" height="32.000000" viewBox="0 0 32 32" fill="none" xmlns="http://www.w3.org/2000/svg" xmlns:xlink="http://www.w3.org/1999/xlink">
	<desc>
			Created with Pixso.
	</desc>
	<defs/>
	<g opacity="0.120000">
		<rect id="shape" rx="4.000000" width="32.000000" height="32.000000" fill="#FFFFFF" fill-opacity="1.000000"/>
	</g>
	<path id="Vector" d="M19.7 8.67L17.85 8.66C15.77 8.66 14.43 10.08 14.43 12.27L14.43 13.94L12.57 13.94C12.41 13.94 12.27 14.07 12.27 14.24L12.27 16.65C12.27 16.81 12.41 16.95 12.57 16.95L14.43 16.95L14.43 23.03C14.43 23.2 14.56 23.33 14.72 23.33L17.15 23.33C17.31 23.33 17.44 23.2 17.44 23.03L17.44 16.95L19.61 16.95C19.78 16.95 19.91 16.81 19.91 16.65L19.91 14.24C19.91 14.16 19.88 14.08 19.82 14.02C19.77 13.97 19.69 13.94 19.62 13.94L17.44 13.94L17.44 12.53C17.44 11.85 17.59 11.5 18.46 11.5L19.7 11.5C19.86 11.5 19.99 11.37 19.99 11.2L19.99 8.97C19.99 8.8 19.86 8.67 19.7 8.67Z" fill="#FFFFFF" fill-opacity="1.000000" fill-rule="nonzero"/>
</svg>
