<svg width="162.000000" height="48.000000" viewBox="0 0 162 48" fill="none" xmlns="http://www.w3.org/2000/svg" xmlns:xlink="http://www.w3.org/1999/xlink">
	<desc>
	</desc>
	<defs>
		<clipPath id="clip23_4605">
			<rect id="google-play" width="162.000000" height="48.000000" fill="white" fill-opacity="0"/>
		</clipPath>
		<linearGradient x1="26.159985" y1="10.455402" x2="6.020402" y2="30.586765" id="paint_linear_23_4597_0" gradientUnits="userSpaceOnUse">
			<stop stop-color="#00A0FF"/>
			<stop offset="0.007000" stop-color="#00A1FF"/>
			<stop offset="0.260000" stop-color="#00BEFF"/>
			<stop offset="0.512000" stop-color="#00D2FF"/>
			<stop offset="0.760000" stop-color="#00DFFF"/>
			<stop offset="1.000000" stop-color="#00E3FF"/>
		</linearGradient>
		<linearGradient x1="40.601315" y1="24.000381" x2="11.564814" y2="24.000381" id="paint_linear_23_4598_0" gradientUnits="userSpaceOnUse">
			<stop stop-color="#FFE000"/>
			<stop offset="0.409000" stop-color="#FFBD00"/>
			<stop offset="0.775000" stop-color="#FFA500"/>
			<stop offset="1.000000" stop-color="#FF9C00"/>
		</linearGradient>
		<linearGradient x1="29.792887" y1="26.754234" x2="2.483267" y2="54.054329" id="paint_linear_23_4599_0" gradientUnits="userSpaceOnUse">
			<stop stop-color="#FF3A44"/>
			<stop offset="1.000000" stop-color="#C31162"/>
		</linearGradient>
		<linearGradient x1="8.756866" y1="0.219936" x2="20.952477" y2="12.411274" id="paint_linear_23_4600_0" gradientUnits="userSpaceOnUse">
			<stop stop-color="#32A071"/>
			<stop offset="0.069000" stop-color="#2DA771"/>
			<stop offset="0.476000" stop-color="#15CF74"/>
			<stop offset="0.801000" stop-color="#06E775"/>
			<stop offset="1.000000" stop-color="#00F076"/>
		</linearGradient>
	</defs>
	<rect id="google-play" width="162.000000" height="48.000000" fill="#FFFFFF" fill-opacity="0"/>
	<g clip-path="url(#clip23_4605)">
		<path id="Vector" d="M156 47.99L6 47.99C2.64 47.99 0 45.35 0 41.99L0 6C0 2.64 2.64 0 6 0L156 0C159.35 0 162 2.64 162 6L162 41.99C162 45.35 159.35 47.99 156 47.99Z" fill="#424551" fill-opacity="1.000000" fill-rule="nonzero"/>
		<path id="Vector" d="M156 0.96C158.75 0.96 161.03 3.24 161.03 6L161.03 41.99C161.03 44.75 158.75 47.03 156 47.03L6 47.03C3.24 47.03 0.96 44.75 0.96 41.99L0.96 6C0.96 3.24 3.24 0.96 6 0.96L156 0.96ZM156 0L6 0C2.64 0 0 2.76 0 6L0 41.99C0 45.35 2.64 47.99 6 47.99L156 47.99C159.35 47.99 162 45.35 162 41.99L162 6C162 2.76 159.35 0 156 0Z" fill="#424551" fill-opacity="1.000000" fill-rule="nonzero"/>
		<path id="Vector" d="M56.87 12.24C56.87 13.2 56.64 14.04 56.03 14.64C55.32 15.36 54.48 15.72 53.4 15.72C52.32 15.72 51.48 15.36 50.75 14.64C50.03 13.92 49.67 13.08 49.67 12C49.67 10.92 50.03 10.08 50.75 9.36C51.48 8.64 52.32 8.28 53.4 8.28C53.87 8.28 54.35 8.4 54.83 8.64C55.32 8.88 55.67 9.12 55.91 9.48L55.32 10.08C54.83 9.48 54.24 9.24 53.4 9.24C52.67 9.24 51.95 9.48 51.48 10.08C50.87 10.56 50.64 11.28 50.64 12.12C50.64 12.96 50.87 13.68 51.48 14.16C52.08 14.64 52.67 15 53.4 15C54.24 15 54.83 14.76 55.43 14.16C55.79 13.8 56.03 13.32 56.03 12.72L53.4 12.72L53.4 11.76L56.87 11.76L56.87 12.24ZM62.4 9.24L59.16 9.24L59.16 11.52L62.16 11.52L62.16 12.36L59.16 12.36L59.16 14.64L62.4 14.64L62.4 15.6L58.19 15.6L58.19 8.4L62.4 8.4L62.4 9.24ZM66.35 15.6L65.4 15.6L65.4 9.24L63.35 9.24L63.35 8.4L68.4 8.4L68.4 9.24L66.35 9.24L66.35 15.6ZM71.87 15.6L71.87 8.4L72.83 8.4L72.83 15.6L71.87 15.6ZM76.91 15.6L75.95 15.6L75.95 9.24L73.91 9.24L73.91 8.4L78.83 8.4L78.83 9.24L76.79 9.24L76.79 15.6L76.91 15.6ZM88.32 14.64C87.59 15.36 86.75 15.72 85.67 15.72C84.59 15.72 83.75 15.36 83.03 14.64C82.32 13.92 81.95 13.08 81.95 12C81.95 10.92 82.32 10.08 83.03 9.36C83.75 8.64 84.59 8.28 85.67 8.28C86.75 8.28 87.59 8.64 88.32 9.36C89.03 10.08 89.4 10.92 89.4 12C89.4 13.08 89.03 13.92 88.32 14.64ZM83.75 14.04C84.24 14.52 84.95 14.88 85.67 14.88C86.4 14.88 87.11 14.64 87.59 14.04C88.08 13.56 88.43 12.84 88.43 12C88.43 11.16 88.19 10.44 87.59 9.96C87.11 9.48 86.4 9.12 85.67 9.12C84.95 9.12 84.24 9.36 83.75 9.96C83.27 10.44 82.91 11.16 82.91 12C82.91 12.84 83.16 13.56 83.75 14.04ZM90.71 15.6L90.71 8.4L91.79 8.4L95.27 14.04L95.27 8.4L96.24 8.4L96.24 15.6L95.27 15.6L91.56 9.72L91.56 15.6L90.71 15.6Z" fill="#FFFFFF" fill-opacity="1.000000" fill-rule="nonzero"/>
		<path id="Vector" d="M81.72 26.16C78.83 26.16 76.56 28.31 76.56 31.31C76.56 34.19 78.83 36.47 81.72 36.47C84.59 36.47 86.88 34.31 86.88 31.31C86.88 28.19 84.59 26.16 81.72 26.16ZM81.72 34.31C80.16 34.31 78.83 32.99 78.83 31.19C78.83 29.39 80.16 28.07 81.72 28.07C83.28 28.07 84.59 29.27 84.59 31.19C84.59 32.99 83.28 34.31 81.72 34.31ZM70.56 26.16C67.67 26.16 65.4 28.31 65.4 31.31C65.4 34.19 67.67 36.47 70.56 36.47C73.43 36.47 75.72 34.31 75.72 31.31C75.72 28.19 73.43 26.16 70.56 26.16ZM70.56 34.31C69 34.31 67.67 32.99 67.67 31.19C67.67 29.39 69 28.07 70.56 28.07C72.12 28.07 73.43 29.27 73.43 31.19C73.43 32.99 72.12 34.31 70.56 34.31ZM57.24 27.71L57.24 29.87L62.4 29.87C62.28 31.07 61.8 32.03 61.2 32.63C60.48 33.35 59.28 34.19 57.24 34.19C54 34.19 51.59 31.67 51.59 28.43C51.59 25.19 54.12 22.68 57.24 22.68C58.91 22.68 60.24 23.4 61.2 24.24L62.75 22.68C61.43 21.48 59.75 20.52 57.35 20.52C53.04 20.52 49.32 24.12 49.32 28.43C49.32 32.75 53.04 36.35 57.35 36.35C59.75 36.35 61.43 35.63 62.88 34.07C64.32 32.63 64.8 30.59 64.8 29.03C64.8 28.55 64.8 28.07 64.67 27.71L57.24 27.71ZM111.72 29.39C111.24 28.19 110.04 26.16 107.4 26.16C104.76 26.16 102.6 28.19 102.6 31.31C102.6 34.19 104.76 36.47 107.64 36.47C109.92 36.47 111.36 35.03 111.84 34.19L110.16 32.99C109.56 33.83 108.84 34.43 107.64 34.43C106.43 34.43 105.72 33.95 105.12 32.87L111.96 29.99L111.72 29.39ZM104.76 31.07C104.76 29.15 106.32 28.07 107.4 28.07C108.24 28.07 109.08 28.55 109.32 29.15L104.76 31.07ZM99.12 35.99L101.4 35.99L101.4 21L99.12 21L99.12 35.99ZM95.51 27.23C94.91 26.63 93.96 26.03 92.75 26.03C90.24 26.03 87.83 28.31 87.83 31.19C87.83 34.07 90.12 36.23 92.75 36.23C93.96 36.23 94.91 35.63 95.4 35.03L95.51 35.03L95.51 35.75C95.51 37.67 94.43 38.75 92.75 38.75C91.43 38.75 90.48 37.79 90.24 36.95L88.32 37.79C88.91 39.11 90.36 40.79 92.88 40.79C95.51 40.79 97.67 39.23 97.67 35.51L97.67 26.4L95.51 26.4L95.51 27.23ZM92.88 34.31C91.32 34.31 90 32.99 90 31.19C90 29.39 91.32 28.07 92.88 28.07C94.43 28.07 95.64 29.39 95.64 31.19C95.64 32.99 94.43 34.31 92.88 34.31ZM122.16 21L116.76 21L116.76 35.99L119.04 35.99L119.04 30.35L122.16 30.35C124.68 30.35 127.08 28.55 127.08 25.67C127.08 22.8 124.68 21 122.16 21ZM122.28 28.19L119.04 28.19L119.04 23.04L122.28 23.04C123.96 23.04 124.92 24.48 124.92 25.56C124.8 26.87 123.84 28.19 122.28 28.19ZM136.08 26.03C134.39 26.03 132.72 26.75 132.12 28.31L134.16 29.15C134.64 28.31 135.36 28.07 136.2 28.07C137.39 28.07 138.48 28.79 138.6 29.99L138.6 30.11C138.24 29.87 137.28 29.51 136.32 29.51C134.16 29.51 132 30.71 132 32.87C132 34.91 133.8 36.23 135.72 36.23C137.28 36.23 138 35.51 138.6 34.79L138.72 34.79L138.72 35.99L140.88 35.99L140.88 30.23C140.64 27.59 138.6 26.03 136.08 26.03ZM135.84 34.31C135.12 34.31 134.04 33.95 134.04 32.99C134.04 31.79 135.36 31.43 136.43 31.43C137.39 31.43 137.88 31.67 138.48 31.91C138.24 33.35 137.04 34.31 135.84 34.31ZM148.44 26.4L145.92 32.87L145.8 32.87L143.16 26.4L140.75 26.4L144.72 35.51L142.44 40.55L144.72 40.55L150.84 26.4L148.44 26.4ZM128.28 35.99L130.56 35.99L130.56 21L128.28 21L128.28 35.99Z" fill="#FFFFFF" fill-opacity="1.000000" fill-rule="nonzero"/>
		<path id="Vector" d="M12.48 9C12.11 9.36 12 9.96 12 10.68L12 37.19C12 37.91 12.24 38.51 12.59 38.87L12.72 38.99L27.59 24.11L27.59 23.87L12.48 9Z" fill="url(#paint_linear_23_4597_0)" fill-opacity="1.000000" fill-rule="nonzero"/>
		<path id="Vector" d="M32.4 29.15L27.48 24.23L27.48 23.87L32.4 18.96L32.51 19.08L38.4 22.43C40.08 23.39 40.08 24.95 38.4 25.91L32.4 29.15Z" fill="url(#paint_linear_23_4598_0)" fill-opacity="1.000000" fill-rule="nonzero"/>
		<path id="Vector" d="M32.51 29.03L27.48 24L12.48 38.99C13.08 39.59 13.91 39.59 15 39.11L32.51 29.03Z" fill="url(#paint_linear_23_4599_0)" fill-opacity="1.000000" fill-rule="nonzero"/>
		<path id="Vector" d="M32.51 18.96L15 9C13.91 8.4 13.08 8.52 12.48 9.12L27.48 24L32.51 18.96Z" fill="url(#paint_linear_23_4600_0)" fill-opacity="1.000000" fill-rule="nonzero"/>
		<g opacity="0.200000">
			<path id="Vector" d="M32.4 28.91L15 38.75C14.04 39.35 13.2 39.23 12.59 38.75L12.48 38.87L12.59 38.99C13.2 39.47 14.04 39.59 15 38.99L32.4 28.91Z" fill="#424551" fill-opacity="1.000000" fill-rule="nonzero"/>
		</g>
		<g opacity="0.200000">
			<path id="Vector" d="M12.48 38.75C12.11 38.39 12 37.79 12 37.07L12 37.19C12 37.91 12.24 38.51 12.59 38.87L12.59 38.75L12.48 38.75ZM38.4 25.55L32.4 28.91L32.51 29.03L38.4 25.67C39.24 25.19 39.59 24.59 39.59 24C39.59 24.59 39.11 25.08 38.4 25.55Z" fill="#424551" fill-opacity="1.000000" fill-rule="nonzero"/>
		</g>
		<g opacity="0.200000">
			<path id="Vector" d="M15 9.12L38.4 22.44C39.11 22.91 39.59 23.4 39.59 24C39.59 23.4 39.24 22.8 38.4 22.32L15 9C13.32 8.04 12 8.76 12 10.68L12 10.8C12 9 13.32 8.16 15 9.12Z" fill="#FFFFFF" fill-opacity="1.000000" fill-rule="nonzero"/>
		</g>
	</g>
</svg>
