<svg width="32.000000" height="32.000000" viewBox="0 0 32 32" fill="none" xmlns="http://www.w3.org/2000/svg" xmlns:xlink="http://www.w3.org/1999/xlink">
	<desc>
			Created with Pixso.
	</desc>
	<defs>
		<clipPath id="clip28_4540">
			<rect id="Instagram" width="16.000000" height="16.000000" transform="translate(8.000000 8.000000)" fill="white" fill-opacity="0"/>
		</clipPath>
	</defs>
	<g opacity="0.120000">
		<rect id="shape" rx="4.000000" width="32.000000" height="32.000000" fill="#FFFFFF" fill-opacity="1.000000"/>
	</g>
	<g clip-path="url(#clip28_4540)">
		<path id="Vector" d="M22.65 13.25C22.62 12.54 22.5 12.05 22.34 11.63C22.17 11.18 21.91 10.78 21.57 10.45C21.24 10.11 20.83 9.84 20.39 9.68C19.96 9.51 19.48 9.4 18.77 9.37C18.06 9.33 17.83 9.33 16.02 9.33C14.21 9.33 13.98 9.33 13.27 9.37C12.56 9.4 12.08 9.51 11.66 9.68C11.21 9.84 10.81 10.11 10.47 10.45C10.13 10.78 9.87 11.18 9.7 11.63C9.54 12.05 9.42 12.54 9.39 13.25C9.36 13.96 9.35 14.18 9.35 16C9.35 17.81 9.36 18.03 9.39 18.74C9.42 19.45 9.54 19.94 9.7 20.36C9.87 20.81 10.13 21.21 10.47 21.54C10.81 21.88 11.21 22.15 11.65 22.31C12.08 22.48 12.56 22.59 13.27 22.62C13.98 22.65 14.21 22.66 16.02 22.66C17.83 22.66 18.06 22.65 18.77 22.62C19.47 22.59 19.96 22.48 20.38 22.31C21.28 21.97 21.99 21.26 22.33 20.36C22.5 19.94 22.61 19.45 22.64 18.74C22.67 18.03 22.68 17.81 22.68 16C22.68 14.18 22.68 13.96 22.65 13.25ZM21.45 18.69C21.42 19.34 21.31 19.69 21.22 19.93C21 20.51 20.53 20.97 19.95 21.19C19.72 21.29 19.36 21.4 18.72 21.42C18.01 21.45 17.8 21.46 16.02 21.46C14.24 21.46 14.03 21.45 13.33 21.42C12.68 21.4 12.33 21.29 12.09 21.19C11.8 21.09 11.54 20.92 11.33 20.7C11.11 20.48 10.94 20.22 10.83 19.93C10.74 19.7 10.63 19.34 10.6 18.69C10.57 17.99 10.56 17.78 10.56 16C10.56 14.22 10.57 14.01 10.6 13.31C10.63 12.66 10.74 12.3 10.83 12.07C10.94 11.78 11.11 11.52 11.33 11.3C11.55 11.08 11.81 10.91 12.09 10.81C12.33 10.72 12.68 10.61 13.33 10.58C14.04 10.55 14.25 10.54 16.03 10.54C17.81 10.54 18.02 10.55 18.72 10.58C19.37 10.61 19.72 10.72 19.96 10.81C20.25 10.91 20.51 11.08 20.72 11.3C20.94 11.52 21.11 11.78 21.22 12.07C21.31 12.3 21.42 12.66 21.45 13.31C21.48 14.01 21.49 14.22 21.49 16C21.49 17.78 21.48 17.99 21.45 18.69ZM19.58 13.23C20.02 13.23 20.38 12.88 20.38 12.43C20.38 11.99 20.02 11.64 19.58 11.64C19.14 11.64 18.78 11.99 18.78 12.43C18.78 12.88 19.14 13.23 19.58 13.23ZM16.02 12.57C14.13 12.57 12.59 14.1 12.59 16C12.59 17.89 14.13 19.42 16.02 19.42C17.91 19.42 19.45 17.89 19.45 16C19.45 14.1 17.91 12.57 16.02 12.57ZM16.02 18.22C14.79 18.22 13.8 17.22 13.8 16C13.8 14.77 14.79 13.77 16.02 13.77C17.25 13.77 18.24 14.77 18.24 16C18.24 17.22 17.25 18.22 16.02 18.22Z" fill="#FFFFFF" fill-opacity="1.000000" fill-rule="evenodd"/>
	</g>
</svg>
