<svg width="16.000000" height="16.000000" viewBox="0 0 16 16" fill="none" xmlns="http://www.w3.org/2000/svg" xmlns:xlink="http://www.w3.org/1999/xlink">
	<desc>
	</desc>
	<defs>
		<clipPath id="clip23_4615">
			<rect id="Instagram" width="16.000000" height="16.000000" fill="white" fill-opacity="0"/>
		</clipPath>
	</defs>
	<g clip-path="url(#clip23_4615)">
		<path id="Vector" d="M14.65 5.25C14.62 4.54 14.5 4.05 14.34 3.63C14.17 3.18 13.91 2.78 13.57 2.45C13.24 2.11 12.83 1.84 12.39 1.68C11.96 1.51 11.48 1.4 10.77 1.37C10.06 1.33 9.83 1.33 8.02 1.33C6.21 1.33 5.98 1.33 5.27 1.37C4.56 1.4 4.08 1.51 3.66 1.68C3.21 1.84 2.81 2.11 2.47 2.45C2.13 2.78 1.87 3.18 1.7 3.63C1.54 4.05 1.42 4.54 1.39 5.25C1.36 5.96 1.35 6.18 1.35 8C1.35 9.81 1.36 10.03 1.39 10.74C1.42 11.45 1.54 11.94 1.7 12.36C1.87 12.81 2.13 13.21 2.47 13.54C2.81 13.88 3.21 14.15 3.65 14.31C4.08 14.48 4.56 14.59 5.27 14.62C5.98 14.65 6.21 14.66 8.02 14.66C9.83 14.66 10.06 14.65 10.77 14.62C11.47 14.59 11.96 14.48 12.38 14.31C13.28 13.97 13.99 13.26 14.33 12.36C14.5 11.94 14.61 11.45 14.64 10.74C14.67 10.03 14.68 9.81 14.68 8C14.68 6.18 14.68 5.96 14.65 5.25ZM13.45 10.69C13.42 11.34 13.31 11.69 13.22 11.93C13 12.51 12.53 12.97 11.95 13.19C11.72 13.29 11.36 13.4 10.72 13.42C10.01 13.45 9.8 13.46 8.02 13.46C6.24 13.46 6.03 13.45 5.33 13.42C4.68 13.4 4.33 13.29 4.09 13.19C3.8 13.09 3.54 12.92 3.33 12.7C3.11 12.48 2.94 12.22 2.83 11.93C2.74 11.7 2.63 11.34 2.6 10.69C2.57 9.99 2.56 9.78 2.56 8C2.56 6.22 2.57 6.01 2.6 5.31C2.63 4.66 2.74 4.3 2.83 4.07C2.94 3.78 3.11 3.52 3.33 3.3C3.55 3.08 3.81 2.91 4.09 2.81C4.33 2.72 4.68 2.61 5.33 2.58C6.04 2.55 6.25 2.54 8.03 2.54C9.81 2.54 10.02 2.55 10.72 2.58C11.37 2.61 11.72 2.72 11.96 2.81C12.25 2.91 12.51 3.08 12.72 3.3C12.94 3.52 13.11 3.78 13.22 4.07C13.31 4.3 13.42 4.66 13.45 5.31C13.48 6.01 13.49 6.22 13.49 8C13.49 9.78 13.48 9.99 13.45 10.69ZM11.58 5.23C12.02 5.23 12.38 4.88 12.38 4.43C12.38 3.99 12.02 3.64 11.58 3.64C11.14 3.64 10.78 3.99 10.78 4.43C10.78 4.88 11.14 5.23 11.58 5.23ZM8.02 4.57C6.13 4.57 4.59 6.1 4.59 8C4.59 9.89 6.13 11.42 8.02 11.42C9.91 11.42 11.45 9.89 11.45 8C11.45 6.1 9.91 4.57 8.02 4.57ZM8.02 10.22C6.79 10.22 5.8 9.22 5.8 8C5.8 6.77 6.79 5.77 8.02 5.77C9.25 5.77 10.24 6.77 10.24 8C10.24 9.22 9.25 10.22 8.02 10.22Z" fill="#FFFFFF" fill-opacity="1.000000" fill-rule="evenodd"/>
	</g>
</svg>
