<svg width="16.000000" height="16.000000" viewBox="0 0 16 16" fill="none" xmlns="http://www.w3.org/2000/svg" xmlns:xlink="http://www.w3.org/1999/xlink">
	<desc>
	</desc>
	<defs>
		<clipPath id="clip23_4629">
			<rect id="pinterest" width="16.000000" height="16.000000" fill="white" fill-opacity="0"/>
		</clipPath>
	</defs>
	<g clip-path="url(#clip23_4629)">
		<path id="Vector" d="M8.2 0.66C4.15 0.66 2 3.24 2 6.05C2 7.35 2.73 8.98 3.9 9.49C4.24 9.64 4.19 9.46 4.48 8.36C4.5 8.27 4.49 8.19 4.42 8.11C2.74 6.18 4.09 2.22 7.96 2.22C13.55 2.22 12.51 9.91 8.93 9.91C8.01 9.91 7.32 9.19 7.54 8.3C7.8 7.24 8.32 6.1 8.32 5.34C8.32 3.42 5.43 3.7 5.43 6.25C5.43 7.04 5.71 7.57 5.71 7.57C5.71 7.57 4.78 11.3 4.61 11.99C4.32 13.17 4.65 15.08 4.68 15.24C4.7 15.33 4.8 15.36 4.86 15.29C4.95 15.17 6.07 13.58 6.39 12.43C6.5 12.01 6.97 10.31 6.97 10.31C7.28 10.87 8.17 11.33 9.12 11.33C11.95 11.33 14 8.86 14 5.8C13.99 2.86 11.45 0.66 8.2 0.66L8.2 0.66Z" fill="#FFFFFF" fill-opacity="1.000000" fill-rule="nonzero"/>
	</g>
</svg>
