<svg width="32.000000" height="32.000000" viewBox="0 0 32 32" fill="none" xmlns="http://www.w3.org/2000/svg" xmlns:xlink="http://www.w3.org/1999/xlink">
	<desc>
			Created with Pixso.
	</desc>
	<defs>
		<clipPath id="clip28_4554">
			<rect id="pinterest" width="16.000000" height="16.000000" transform="translate(8.000000 8.000000)" fill="white" fill-opacity="0"/>
		</clipPath>
	</defs>
	<g opacity="0.120000">
		<rect id="shape" rx="4.000000" width="32.000000" height="32.000000" fill="#FFFFFF" fill-opacity="1.000000"/>
	</g>
	<g clip-path="url(#clip28_4554)">
		<path id="Vector" d="M16.2 8.66C12.15 8.66 10 11.24 10 14.05C10 15.35 10.73 16.98 11.9 17.49C12.24 17.64 12.19 17.46 12.48 16.36C12.5 16.27 12.49 16.19 12.42 16.11C10.74 14.18 12.09 10.22 15.96 10.22C21.55 10.22 20.51 17.91 16.93 17.91C16.01 17.91 15.32 17.19 15.54 16.3C15.8 15.24 16.32 14.1 16.32 13.34C16.32 11.42 13.43 11.7 13.43 14.25C13.43 15.04 13.71 15.57 13.71 15.57C13.71 15.57 12.78 19.3 12.61 19.99C12.32 21.17 12.65 23.08 12.68 23.24C12.7 23.33 12.8 23.36 12.86 23.29C12.95 23.17 14.07 21.58 14.39 20.43C14.5 20.01 14.97 18.31 14.97 18.31C15.28 18.87 16.17 19.33 17.12 19.33C19.95 19.33 22 16.86 22 13.8C21.99 10.86 19.45 8.66 16.2 8.66L16.2 8.66Z" fill="#FFFFFF" fill-opacity="1.000000" fill-rule="nonzero"/>
	</g>
</svg>
