<svg width="16.000000" height="16.000000" viewBox="0 0 16 16" fill="none" xmlns="http://www.w3.org/2000/svg" xmlns:xlink="http://www.w3.org/1999/xlink">
	<desc>
	</desc>
	<defs/>
	<path id="Vector" d="M15 3.84C14.48 4.06 13.93 4.21 13.35 4.28C13.94 3.94 14.39 3.4 14.61 2.76C14.05 3.07 13.44 3.3 12.78 3.42C12.26 2.89 11.51 2.56 10.69 2.56C9.1 2.56 7.82 3.79 7.82 5.31C7.82 5.52 7.84 5.73 7.89 5.93C5.5 5.82 3.39 4.72 1.97 3.06C1.72 3.46 1.58 3.94 1.58 4.44C1.58 5.39 2.09 6.24 2.86 6.73C2.39 6.71 1.95 6.59 1.56 6.38L1.56 6.42C1.56 7.75 2.55 8.86 3.86 9.11C3.62 9.18 3.37 9.21 3.1 9.21C2.92 9.21 2.74 9.19 2.57 9.16C2.93 10.25 3.99 11.05 5.25 11.07C4.26 11.81 3.03 12.25 1.68 12.25C1.45 12.25 1.22 12.23 1 12.21C2.27 12.99 3.77 13.44 5.4 13.44C10.68 13.44 13.57 9.25 13.57 5.62L13.56 5.26C14.12 4.88 14.61 4.4 15 3.84Z" fill="#FFFFFF" fill-opacity="1.000000" fill-rule="nonzero"/>
</svg>
