<svg width="32.000000" height="32.000000" viewBox="0 0 32 32" fill="none" xmlns="http://www.w3.org/2000/svg" xmlns:xlink="http://www.w3.org/1999/xlink">
	<desc>
			Created with Pixso.
	</desc>
	<defs/>
	<g opacity="0.120000">
		<rect id="shape" rx="4.000000" width="32.000000" height="32.000000" fill="#FFFFFF" fill-opacity="1.000000"/>
	</g>
	<path id="Vector" d="M23 11.84C22.48 12.06 21.93 12.21 21.35 12.28C21.94 11.94 22.39 11.4 22.61 10.76C22.05 11.07 21.44 11.3 20.78 11.42C20.26 10.89 19.51 10.56 18.69 10.56C17.1 10.56 15.82 11.79 15.82 13.31C15.82 13.52 15.84 13.73 15.89 13.93C13.5 13.82 11.39 12.72 9.97 11.06C9.72 11.46 9.58 11.94 9.58 12.44C9.58 13.39 10.09 14.24 10.86 14.73C10.39 14.71 9.95 14.59 9.56 14.38L9.56 14.42C9.56 15.75 10.55 16.86 11.86 17.11C11.62 17.18 11.37 17.21 11.1 17.21C10.92 17.21 10.74 17.19 10.57 17.16C10.93 18.25 11.99 19.05 13.25 19.07C12.26 19.81 11.03 20.25 9.68 20.25C9.45 20.25 9.22 20.23 9 20.21C10.27 20.99 11.77 21.44 13.4 21.44C18.68 21.44 21.57 17.25 21.57 13.62L21.56 13.26C22.12 12.88 22.61 12.4 23 11.84Z" fill="#FFFFFF" fill-opacity="1.000000" fill-rule="nonzero"/>
</svg>
