<svg width="20.000000" height="12.000000" viewBox="0 0 20 12" fill="none" xmlns="http://www.w3.org/2000/svg" xmlns:xlink="http://www.w3.org/1999/xlink">
	<desc>
			Created with Pixso.
	</desc>
	<defs>
		<clipPath id="clip31_4065">
			<rect id="flag-usa" width="20.000000" height="12.000000" fill="white" fill-opacity="0"/>
		</clipPath>
	</defs>
	<g clip-path="url(#clip31_4065)">
		<path id="Vector" d="M20 0L0 0L0 12L20 12L20 0Z" fill="#B22234" fill-opacity="1.000000" fill-rule="evenodd"/>
		<path id="Vector (Stroke)" d="M20 1.74L0 1.74L0 0.79L20 0.79L20 1.74ZM0 2.69L20 2.69L20 3.63L0 3.63L0 2.69ZM20 5.52L0 5.52L0 4.58L20 4.58L20 5.52ZM0 6.47L20 6.47L20 7.41L0 7.41L0 6.47ZM20 9.3L0 9.3L0 8.36L20 8.36L20 9.3ZM0 10.25L20 10.25L20 11.2L0 11.2L0 10.25Z" fill="#FFFFFF" fill-opacity="1.000000" fill-rule="evenodd"/>
		<path id="Vector" d="M0 0L9.11 0L9.11 6.46L0 6.46L0 0Z" fill="#3C3B6E" fill-opacity="1.000000" fill-rule="evenodd"/>
		<path id="Vector" d="M0.75 0.22L0.84 0.47L1.11 0.47L0.89 0.63L0.97 0.88L0.75 0.73L0.54 0.88L0.62 0.63L0.4 0.47L0.67 0.47L0.75 0.22ZM2.27 0.22L2.35 0.47L2.62 0.47L2.4 0.63L2.49 0.88L2.27 0.73L2.05 0.88L2.14 0.63L1.92 0.47L2.19 0.47L2.27 0.22ZM3.78 0.22L3.87 0.47L4.14 0.47L3.92 0.63L4 0.88L3.78 0.73L3.57 0.88L3.65 0.63L3.43 0.47L3.7 0.47L3.78 0.22ZM5.3 0.22L5.38 0.47L5.65 0.47L5.43 0.63L5.51 0.88L5.3 0.73L5.08 0.88L5.16 0.63L4.95 0.47L5.22 0.47L5.3 0.22ZM6.81 0.22L6.9 0.47L7.16 0.47L6.95 0.63L7.03 0.88L6.81 0.73L6.6 0.88L6.68 0.63L6.46 0.47L6.73 0.47L6.81 0.22ZM8.33 0.22L8.41 0.47L8.68 0.47L8.46 0.63L8.54 0.88L8.33 0.73L8.11 0.88L8.19 0.63L7.98 0.47L8.25 0.47L8.33 0.22ZM1.51 0.88L1.59 1.14L1.86 1.14L1.64 1.3L1.73 1.55L1.51 1.39L1.29 1.55L1.37 1.3L1.16 1.14L1.43 1.14L1.51 0.88ZM3.02 0.88L3.11 1.14L3.37 1.14L3.16 1.3L3.24 1.55L3.02 1.39L2.81 1.55L2.89 1.3L2.67 1.14L2.94 1.14L3.02 0.88ZM4.54 0.88L4.62 1.14L4.89 1.14L4.67 1.3L4.75 1.55L4.54 1.39L4.32 1.55L4.4 1.3L4.19 1.14L4.46 1.14L4.54 0.88ZM6.05 0.88L6.14 1.14L6.4 1.14L6.19 1.3L6.27 1.55L6.05 1.39L5.83 1.55L5.92 1.3L5.7 1.14L5.97 1.14L6.05 0.88ZM7.57 0.88L7.65 1.14L7.92 1.14L7.7 1.3L7.78 1.55L7.57 1.39L7.35 1.55L7.43 1.3L7.22 1.14L7.48 1.14L7.57 0.88ZM0.75 1.55L0.84 1.81L1.11 1.81L0.89 1.97L0.97 2.22L0.75 2.06L0.54 2.22L0.62 1.97L0.4 1.81L0.67 1.81L0.75 1.55ZM2.27 1.55L2.35 1.81L2.62 1.81L2.4 1.97L2.49 2.22L2.27 2.06L2.05 2.22L2.14 1.97L1.92 1.81L2.19 1.81L2.27 1.55ZM3.78 1.55L3.87 1.81L4.14 1.81L3.92 1.97L4 2.22L3.78 2.06L3.57 2.22L3.65 1.97L3.43 1.81L3.7 1.81L3.78 1.55ZM5.3 1.55L5.38 1.81L5.65 1.81L5.43 1.97L5.51 2.22L5.3 2.06L5.08 2.22L5.16 1.97L4.95 1.81L5.22 1.81L5.3 1.55ZM6.81 1.55L6.9 1.81L7.16 1.81L6.95 1.97L7.03 2.22L6.81 2.06L6.6 2.22L6.68 1.97L6.46 1.81L6.73 1.81L6.81 1.55ZM8.33 1.55L8.41 1.81L8.68 1.81L8.46 1.97L8.54 2.22L8.33 2.06L8.11 2.22L8.19 1.97L7.98 1.81L8.25 1.81L8.33 1.55ZM1.51 2.22L1.59 2.48L1.86 2.48L1.64 2.63L1.73 2.89L1.51 2.73L1.29 2.89L1.37 2.63L1.16 2.48L1.43 2.48L1.51 2.22ZM3.02 2.22L3.11 2.48L3.37 2.48L3.16 2.63L3.24 2.89L3.02 2.73L2.81 2.89L2.89 2.63L2.67 2.48L2.94 2.48L3.02 2.22ZM4.54 2.22L4.62 2.48L4.89 2.48L4.67 2.63L4.75 2.89L4.54 2.73L4.32 2.89L4.4 2.63L4.19 2.48L4.46 2.48L4.54 2.22ZM6.05 2.22L6.14 2.48L6.4 2.48L6.19 2.63L6.27 2.89L6.05 2.73L5.83 2.89L5.92 2.63L5.7 2.48L5.97 2.48L6.05 2.22ZM7.57 2.22L7.65 2.48L7.92 2.48L7.7 2.63L7.78 2.89L7.57 2.73L7.35 2.89L7.43 2.63L7.22 2.48L7.48 2.48L7.57 2.22ZM0.75 2.89L0.84 3.14L1.11 3.14L0.89 3.3L0.97 3.56L0.75 3.4L0.54 3.56L0.62 3.3L0.4 3.14L0.67 3.14L0.75 2.89ZM2.27 2.89L2.35 3.14L2.62 3.14L2.4 3.3L2.49 3.56L2.27 3.4L2.05 3.56L2.14 3.3L1.92 3.14L2.19 3.14L2.27 2.89ZM3.78 2.89L3.87 3.14L4.14 3.14L3.92 3.3L4 3.56L3.78 3.4L3.57 3.56L3.65 3.3L3.43 3.14L3.7 3.14L3.78 2.89ZM5.3 2.89L5.38 3.14L5.65 3.14L5.43 3.3L5.51 3.56L5.3 3.4L5.08 3.56L5.16 3.3L4.95 3.14L5.22 3.14L5.3 2.89ZM6.81 2.89L6.9 3.14L7.16 3.14L6.95 3.3L7.03 3.56L6.81 3.4L6.6 3.56L6.68 3.3L6.46 3.14L6.73 3.14L6.81 2.89ZM8.33 2.89L8.41 3.14L8.68 3.14L8.46 3.3L8.54 3.56L8.33 3.4L8.11 3.56L8.19 3.3L7.98 3.14L8.25 3.14L8.33 2.89ZM1.51 3.56L1.59 3.81L1.86 3.81L1.64 3.97L1.73 4.22L1.51 4.07L1.29 4.22L1.37 3.97L1.16 3.81L1.43 3.81L1.51 3.56ZM3.02 3.56L3.11 3.81L3.37 3.81L3.16 3.97L3.24 4.22L3.02 4.07L2.81 4.22L2.89 3.97L2.67 3.81L2.94 3.81L3.02 3.56ZM4.54 3.56L4.62 3.81L4.89 3.81L4.67 3.97L4.75 4.22L4.54 4.07L4.32 4.22L4.4 3.97L4.19 3.81L4.46 3.81L4.54 3.56ZM6.05 3.56L6.14 3.81L6.4 3.81L6.19 3.97L6.27 4.22L6.05 4.07L5.83 4.22L5.92 3.97L5.7 3.81L5.97 3.81L6.05 3.56ZM7.57 3.56L7.65 3.81L7.92 3.81L7.7 3.97L7.78 4.22L7.57 4.07L7.35 4.22L7.43 3.97L7.22 3.81L7.48 3.81L7.57 3.56ZM0.75 4.22L0.84 4.48L1.11 4.48L0.89 4.64L0.97 4.89L0.75 4.73L0.54 4.89L0.62 4.64L0.4 4.48L0.67 4.48L0.75 4.22ZM2.27 4.22L2.35 4.48L2.62 4.48L2.4 4.64L2.49 4.89L2.27 4.73L2.05 4.89L2.14 4.64L1.92 4.48L2.19 4.48L2.27 4.22ZM3.78 4.22L3.87 4.48L4.14 4.48L3.92 4.64L4 4.89L3.78 4.73L3.57 4.89L3.65 4.64L3.43 4.48L3.7 4.48L3.78 4.22ZM5.3 4.22L5.38 4.48L5.65 4.48L5.43 4.64L5.51 4.89L5.3 4.73L5.08 4.89L5.16 4.64L4.95 4.48L5.22 4.48L5.3 4.22ZM6.81 4.22L6.9 4.48L7.16 4.48L6.95 4.64L7.03 4.89L6.81 4.73L6.6 4.89L6.68 4.64L6.46 4.48L6.73 4.48L6.81 4.22ZM8.33 4.22L8.41 4.48L8.68 4.48L8.46 4.64L8.54 4.89L8.33 4.73L8.11 4.89L8.19 4.64L7.98 4.48L8.25 4.48L8.33 4.22ZM1.51 4.89L1.59 5.15L1.86 5.15L1.64 5.31L1.73 5.56L1.51 5.4L1.29 5.56L1.37 5.31L1.16 5.15L1.43 5.15L1.51 4.89ZM3.02 4.89L3.11 5.15L3.37 5.15L3.16 5.31L3.24 5.56L3.02 5.4L2.81 5.56L2.89 5.31L2.67 5.15L2.94 5.15L3.02 4.89ZM4.54 4.89L4.62 5.15L4.89 5.15L4.67 5.31L4.75 5.56L4.54 5.4L4.32 5.56L4.4 5.31L4.19 5.15L4.46 5.15L4.54 4.89ZM6.05 4.89L6.14 5.15L6.4 5.15L6.19 5.31L6.27 5.56L6.05 5.4L5.83 5.56L5.92 5.31L5.7 5.15L5.97 5.15L6.05 4.89ZM7.57 4.89L7.65 5.15L7.92 5.15L7.7 5.31L7.78 5.56L7.57 5.4L7.35 5.56L7.43 5.31L7.22 5.15L7.48 5.15L7.57 4.89ZM0.75 5.56L0.84 5.82L1.11 5.82L0.89 5.97L0.97 6.23L0.75 6.07L0.54 6.23L0.62 5.97L0.4 5.82L0.67 5.82L0.75 5.56ZM2.27 5.56L2.35 5.82L2.62 5.82L2.4 5.97L2.49 6.23L2.27 6.07L2.05 6.23L2.14 5.97L1.92 5.82L2.19 5.82L2.27 5.56ZM3.78 5.56L3.87 5.82L4.14 5.82L3.92 5.97L4 6.23L3.78 6.07L3.57 6.23L3.65 5.97L3.43 5.82L3.7 5.82L3.78 5.56ZM5.3 5.56L5.38 5.82L5.65 5.82L5.43 5.97L5.51 6.23L5.3 6.07L5.08 6.23L5.16 5.97L4.95 5.82L5.22 5.82L5.3 5.56ZM6.81 5.56L6.9 5.82L7.16 5.82L6.95 5.97L7.03 6.23L6.81 6.07L6.6 6.23L6.68 5.97L6.46 5.82L6.73 5.82L6.81 5.56ZM8.33 5.56L8.41 5.82L8.68 5.82L8.46 5.97L8.54 6.23L8.33 6.07L8.11 6.23L8.19 5.97L7.98 5.82L8.25 5.82L8.33 5.56Z" fill="#FFFFFF" fill-opacity="1.000000" fill-rule="evenodd"/>
	</g>
</svg>
