<?xml version="1.0" encoding="UTF-8" standalone="no" ?>
<!DOCTYPE svg PUBLIC "-//W3C//DTD SVG 1.1//EN" "http://www.w3.org/Graphics/SVG/1.1/DTD/svg11.dtd">
<svg xmlns="http://www.w3.org/2000/svg" xmlns:xlink="http://www.w3.org/1999/xlink" version="1.1" width="20" height="13.342" viewBox="0 0 20 13.342" xml:space="preserve">
<desc>Created with Fabric.js 5.3.0</desc>
<defs>
</defs>
<g transform="matrix(1 0 0 1 10 120.0916842105)" id="ge03GisvTYlf8BKVgwyuN"  >
<g style=""   >
		<g transform="matrix(1 0 0 1 0 0)" id="VfcMhtB8Ubuc69qqzgt22"  >
<path style="stroke: rgb(1,1,1); stroke-width: 1; stroke-dasharray: none; stroke-linecap: butt; stroke-dashoffset: 0; stroke-linejoin: miter; stroke-miterlimit: 4; fill: rgb(35,62,144); fill-rule: nonzero; opacity: 1;"  transform=" translate(-382.677, -255.118)" d="M 0 510.236 L 0 0 L 765.354 0 L 765.354 510.236 z" stroke-linecap="round" />
</g>
		<g transform="matrix(1 0 0 1 170.079 -2.527)" id="E7cYq55cFuxpNWIRKU49p"  >
<path style="stroke: rgb(1,1,1); stroke-width: 1; stroke-dasharray: none; stroke-linecap: butt; stroke-dashoffset: 0; stroke-linejoin: miter; stroke-miterlimit: 4; fill: rgb(255,205,5); fill-rule: nonzero; opacity: 1;"  transform=" translate(-553.256, -253.091)" d="M 553.256 265.4 L 538.318 276.07599999999996 L 543.857 258.57099999999997 L 529.088 247.66499999999996 L 547.447 247.52199999999996 L 553.256 230.10599999999997 L 559.064 247.52199999999996 L 577.424 247.66499999999996 L 562.654 258.57099999999997 L 568.192 276.07599999999996 z" stroke-linecap="round" />
</g>
		<g transform="matrix(1 0 0 1 -84.677 -149.537)" id="te_uhAR1f7-1P8Yst6IG-"  >
<path style="stroke: rgb(1,1,1); stroke-width: 1; stroke-dasharray: none; stroke-linecap: butt; stroke-dashoffset: 0; stroke-linejoin: miter; stroke-miterlimit: 4; fill: rgb(255,205,5); fill-rule: nonzero; opacity: 1;"  transform=" translate(-298.5, -106.081)" d="M 298.5 118.391 L 283.562 129.066 L 289.10200000000003 111.561 L 274.33200000000005 100.65400000000001 L 292.69100000000003 100.51200000000001 L 298.50000000000006 83.09600000000002 L 304.3090000000001 100.51200000000001 L 322.66800000000006 100.65400000000001 L 307.8980000000001 111.561 L 313.4380000000001 129.066 z" stroke-linecap="round" />
</g>
		<g transform="matrix(1 0 0 1 -146.8115 -87.403)" id="EWz6QU5gF206xDRP6Xdxf"  >
<path style="stroke: rgb(1,1,1); stroke-width: 1; stroke-dasharray: none; stroke-linecap: butt; stroke-dashoffset: 0; stroke-linejoin: miter; stroke-miterlimit: 4; fill: rgb(255,205,5); fill-rule: nonzero; opacity: 1;"  transform=" translate(-236.3655, -168.215)" d="M 236.366 180.524 L 221.429 191.2 L 226.968 173.695 L 212.19799999999998 162.789 L 230.558 162.646 L 236.36599999999999 145.23 L 242.17399999999998 162.646 L 260.53299999999996 162.789 L 245.76399999999995 173.695 L 251.30299999999994 191.2 z" stroke-linecap="round" />
</g>
		<g transform="matrix(1 0 0 1 -169.4345 -2.5275)" id="92DifL05mhFcSUYN6rELs"  >
<path style="stroke: rgb(1,1,1); stroke-width: 1; stroke-dasharray: none; stroke-linecap: butt; stroke-dashoffset: 0; stroke-linejoin: miter; stroke-miterlimit: 4; fill: rgb(255,205,5); fill-rule: nonzero; opacity: 1;"  transform=" translate(-213.7425, -253.0905)" d="M 213.743 265.4 L 198.80599999999998 276.07599999999996 L 204.34499999999997 258.56999999999994 L 189.57499999999996 247.66399999999993 L 207.93499999999995 247.52099999999993 L 213.74299999999994 230.10499999999993 L 219.55099999999993 247.52099999999993 L 237.90999999999994 247.66399999999993 L 223.14099999999993 258.56999999999994 L 228.67999999999992 276.0759999999999 z" stroke-linecap="round" />
</g>
		<g transform="matrix(1 0 0 1 -146.6775 82.354)" id="XGpSmfg5UiodxcDLB2-RE"  >
<path style="stroke: rgb(1,1,1); stroke-width: 1; stroke-dasharray: none; stroke-linecap: butt; stroke-dashoffset: 0; stroke-linejoin: miter; stroke-miterlimit: 4; fill: rgb(255,205,5); fill-rule: nonzero; opacity: 1;"  transform=" translate(-236.4995, -337.972)" d="M 236.5 350.281 L 221.562 360.957 L 227.102 343.451 L 212.332 332.545 L 230.691 332.40200000000004 L 236.5 314.987 L 242.308 332.40200000000004 L 260.667 332.545 L 245.89699999999996 343.451 L 251.43699999999995 360.957 z" stroke-linecap="round" />
</g>
		<g transform="matrix(1 0 0 1 -84.544 144.488)" id="83RJW-6qffM5Z3uKaER5k"  >
<path style="stroke: rgb(1,1,1); stroke-width: 1; stroke-dasharray: none; stroke-linecap: butt; stroke-dashoffset: 0; stroke-linejoin: miter; stroke-miterlimit: 4; fill: rgb(255,205,5); fill-rule: nonzero; opacity: 1;"  transform=" translate(-298.633, -400.106)" d="M 298.633 412.415 L 283.695 423.091 L 289.234 405.58500000000004 L 274.465 394.67900000000003 L 292.82399999999996 394.53600000000006 L 298.633 377.12100000000004 L 304.441 394.53600000000006 L 322.801 394.67900000000003 L 308.031 405.58500000000004 L 313.57 423.091 z" stroke-linecap="round" />
</g>
		<g transform="matrix(1 0 0 1 0.3215 167.229)" id="SR9DTd9O01v8VHVZ3H4E_"  >
<path style="stroke: rgb(1,1,1); stroke-width: 1; stroke-dasharray: none; stroke-linecap: butt; stroke-dashoffset: 0; stroke-linejoin: miter; stroke-miterlimit: 4; fill: rgb(255,205,5); fill-rule: nonzero; opacity: 1;"  transform=" translate(-383.4985, -422.847)" d="M 383.499 435.156 L 368.562 445.832 L 374.101 428.326 L 359.331 417.42 L 377.69 417.27700000000004 L 383.499 399.862 L 389.307 417.27700000000004 L 407.666 417.42 L 392.896 428.326 L 398.43600000000004 445.832 z" stroke-linecap="round" />
</g>
		<g transform="matrix(1 0 0 1 85.3215 144.489)" id="XTjXTG5JW70WNSArr_Imx"  >
<path style="stroke: rgb(1,1,1); stroke-width: 1; stroke-dasharray: none; stroke-linecap: butt; stroke-dashoffset: 0; stroke-linejoin: miter; stroke-miterlimit: 4; fill: rgb(255,205,5); fill-rule: nonzero; opacity: 1;"  transform=" translate(-468.4985, -400.107)" d="M 468.499 412.416 L 453.562 423.092 L 459.101 405.586 L 444.331 394.68 L 462.69 394.53700000000003 L 468.499 377.122 L 474.307 394.53700000000003 L 492.666 394.68 L 477.896 405.586 L 483.43600000000004 423.092 z" stroke-linecap="round" />
</g>
		<g transform="matrix(1 0 0 1 147.4565 82.354)" id="Nvd97BUS6dD1zDGAO3OSz"  >
<path style="stroke: rgb(1,1,1); stroke-width: 1; stroke-dasharray: none; stroke-linecap: butt; stroke-dashoffset: 0; stroke-linejoin: miter; stroke-miterlimit: 4; fill: rgb(255,205,5); fill-rule: nonzero; opacity: 1;"  transform=" translate(-530.6335, -337.972)" d="M 530.634 350.281 L 515.696 360.957 L 521.235 343.451 L 506.466 332.545 L 524.825 332.40200000000004 L 530.634 314.987 L 536.441 332.40200000000004 L 554.801 332.545 L 540.0310000000001 343.451 L 545.57 360.957 z" stroke-linecap="round" />
</g>
		<g transform="matrix(1 0 0 1 147.336 -87.402)" id="kik_x0gKrAnIq7BJ78lNQ"  >
<path style="stroke: rgb(1,1,1); stroke-width: 1; stroke-dasharray: none; stroke-linecap: butt; stroke-dashoffset: 0; stroke-linejoin: miter; stroke-miterlimit: 4; fill: rgb(255,205,5); fill-rule: nonzero; opacity: 1;"  transform=" translate(-530.513, -168.216)" d="M 530.513 180.525 L 515.575 191.201 L 521.114 173.696 L 506.345 162.79 L 524.7040000000001 162.647 L 530.513 145.231 L 536.321 162.647 L 554.681 162.79 L 539.9110000000001 173.696 L 545.4490000000001 191.201 z" stroke-linecap="round" />
</g>
		<g transform="matrix(1 0 0 1 0.323 -172.283)" id="c6u8ayWxbr_Nzr0IE-jgf"  >
<path style="stroke: rgb(1,1,1); stroke-width: 1; stroke-dasharray: none; stroke-linecap: butt; stroke-dashoffset: 0; stroke-linejoin: miter; stroke-miterlimit: 4; fill: rgb(255,205,5); fill-rule: nonzero; opacity: 1;"  transform=" translate(-383.5, -83.335)" d="M 383.5 95.645 L 368.562 106.32 L 374.10200000000003 88.814 L 359.33200000000005 77.90799999999999 L 377.69100000000003 77.76599999999999 L 383.50000000000006 60.349999999999994 L 389.3090000000001 77.76599999999999 L 407.66800000000006 77.90799999999999 L 392.8980000000001 88.814 L 398.43700000000007 106.32 z" stroke-linecap="round" />
</g>
		<g transform="matrix(1 0 0 1 85.473 -149.5365)" id="d6gtANt_TrgqAYYiOqX1b"  >
<path style="stroke: rgb(1,1,1); stroke-width: 1; stroke-dasharray: none; stroke-linecap: butt; stroke-dashoffset: 0; stroke-linejoin: miter; stroke-miterlimit: 4; fill: rgb(255,205,5); fill-rule: nonzero; opacity: 1;"  transform=" translate(-468.65, -106.0815)" d="M 468.65 118.391 L 453.71299999999997 129.066 L 459.25199999999995 111.562 L 444.48199999999997 100.655 L 462.842 100.513 L 468.65 83.09700000000001 L 474.459 100.513 L 492.818 100.655 L 478.049 111.562 L 483.587 129.066 z" stroke-linecap="round" />
</g>
</g>
</g>
</svg>