<svg width="178.000000" height="54.000000" viewBox="0 0 178 54" fill="none" xmlns="http://www.w3.org/2000/svg" xmlns:xlink="http://www.w3.org/1999/xlink">
	<desc>
			Created with Pixso.
	</desc>
	<defs>
		<clipPath id="clip2834_1164">
			<rect id="page" width="178.000000" height="54.000000" fill="white" fill-opacity="0"/>
		</clipPath>
	</defs>
	<g clip-path="url(#clip2834_1164)">
		<path id="01" d="M13.08 28.77Q14.95 26.15 14.95 21.25Q14.95 16.38 13.08 13.76Q12.19 12.51 10.98 11.86Q9.66 11.14 7.95 11.14Q6.55 11.14 5.39 11.66Q5.22 11.73 5.06 11.82Q4.93 11.89 4.79 11.97Q3.68 12.62 2.85 13.78Q1.93 15.06 1.44 16.94Q0.95 18.81 0.95 21.25Q0.95 26.15 2.8 28.77Q3.7 30.02 4.91 30.67Q6.24 31.38 7.95 31.38Q9.66 31.38 10.98 30.67Q12.19 30.02 13.08 28.77ZM19.56 14.86Q18.67 15.29 17.86 15.62L19.12 18.84Q20.1 18.51 21.14 18.05Q22.17 17.58 23.01 17.02L23.01 31L27.19 31L27.19 11.59L24.27 11.59Q23.66 12.24 22.89 12.81Q22.11 13.39 21.27 13.91Q20.44 14.42 19.56 14.86ZM10.55 18.61Q10.69 19.8 10.69 21.25Q10.69 22.71 10.55 23.91Q10.41 25.12 10.11 25.98Q9.8 26.85 9.26 27.33Q9.1 27.48 8.91 27.58Q8.49 27.8 7.95 27.8Q7.4 27.8 6.98 27.57Q6.8 27.47 6.65 27.33Q6.13 26.85 5.81 25.98Q5.48 25.12 5.34 23.91Q5.2 22.71 5.2 21.25Q5.2 19.8 5.34 18.61Q5.48 17.41 5.81 16.54Q6.13 15.68 6.65 15.2Q6.81 15.05 7 14.95Q7.41 14.73 7.95 14.73Q8.48 14.73 8.9 14.95Q9.09 15.05 9.26 15.2Q9.8 15.68 10.11 16.54Q10.41 17.41 10.55 18.61Z" fill="#424551" fill-opacity="1.000000" fill-rule="evenodd"/>
		<path id="line" d="M0 54L178 54" stroke="#424551" stroke-opacity="1.000000" stroke-width="2.000000" stroke-linecap="round"/>
	</g>
</svg>
