<svg width="178.000000" height="54.000000" viewBox="0 0 178 54" fill="none" xmlns="http://www.w3.org/2000/svg" xmlns:xlink="http://www.w3.org/1999/xlink">
	<desc>
			Created with Pixso.
	</desc>
	<defs>
		<clipPath id="clip2834_1167">
			<rect id="page" width="178.000000" height="54.000000" fill="white" fill-opacity="0"/>
		</clipPath>
	</defs>
	<g clip-path="url(#clip2834_1167)">
		<g opacity="0.600000">
			<path id="02" d="M13.08 28.77Q14.95 26.15 14.95 21.25Q14.95 16.38 13.08 13.76Q12.19 12.51 10.98 11.86Q9.66 11.14 7.95 11.14Q6.55 11.14 5.39 11.66Q5.22 11.73 5.06 11.82Q4.93 11.89 4.79 11.97Q3.68 12.62 2.85 13.78Q1.93 15.06 1.44 16.94Q0.95 18.81 0.95 21.25Q0.95 26.15 2.8 28.77Q3.7 30.02 4.91 30.67Q6.24 31.38 7.95 31.38Q9.66 31.38 10.98 30.67Q12.19 30.02 13.08 28.77ZM29.68 17.74Q29.79 17.23 29.79 16.69Q29.79 15.4 29.41 14.38Q29.19 13.78 28.82 13.29Q28.56 12.94 28.23 12.65Q27.44 11.93 26.2 11.54Q24.97 11.14 23.26 11.14Q21.92 11.14 20.7 11.52Q20.22 11.68 19.75 11.89Q18.11 12.63 16.88 13.78L18.95 16.69Q19.15 16.49 19.54 16.17Q19.93 15.85 20.48 15.53Q21.03 15.2 21.68 14.96Q22.34 14.73 23.1 14.73Q24.07 14.73 24.74 15.17Q24.78 15.2 24.83 15.23Q24.92 15.3 24.99 15.37Q25.53 15.89 25.53 16.97Q25.53 17.03 25.53 17.1Q25.5 17.59 25.28 18.08Q25.03 18.62 24.57 19.17Q24.13 19.71 23.54 20.28Q22.95 20.86 22.28 21.5Q21.42 22.34 20.53 23.18Q19.67 24.01 18.98 24.96Q18.96 24.97 18.95 24.99Q18.72 25.3 18.53 25.63Q18.11 26.32 17.81 27.08Q17.38 28.19 17.38 29.54L17.38 30.22Q17.38 30.69 17.44 31L30.38 31L30.38 27.5L22.03 27.5Q22.11 27.21 22.46 26.78Q22.82 26.35 23.26 25.85Q23.71 25.34 24.2 24.85Q24.69 24.36 25.11 23.97Q25.92 23.21 26.76 22.37Q27.6 21.53 28.27 20.62Q28.95 19.71 29.37 18.73Q29.58 18.25 29.68 17.74ZM10.55 18.61Q10.69 19.8 10.69 21.25Q10.69 22.71 10.55 23.91Q10.41 25.12 10.11 25.98Q9.8 26.85 9.26 27.33Q9.1 27.48 8.91 27.58Q8.49 27.8 7.95 27.8Q7.4 27.8 6.98 27.57Q6.8 27.47 6.65 27.33Q6.13 26.85 5.81 25.98Q5.48 25.12 5.34 23.91Q5.2 22.71 5.2 21.25Q5.2 19.8 5.34 18.61Q5.48 17.41 5.81 16.54Q6.13 15.68 6.65 15.2Q6.81 15.05 7 14.95Q7.41 14.73 7.95 14.73Q8.48 14.73 8.9 14.95Q9.09 15.05 9.26 15.2Q9.8 15.68 10.11 16.54Q10.41 17.41 10.55 18.61Z" fill="#424551" fill-opacity="1.000000" fill-rule="evenodd"/>
		</g>
		<g opacity="0.300000">
			<path id="line" d="M0 54L178 54" stroke="#424551" stroke-opacity="1.000000" stroke-width="2.000000" stroke-linecap="round"/>
		</g>
	</g>
</svg>
